<?xml version="1.0" encoding="UTF-8" standalone="no"?><!DOCTYPE svg PUBLIC "-//W3C//DTD SVG 1.1//EN" "http://www.w3.org/Graphics/SVG/1.1/DTD/svg11.dtd"><svg width="100%" height="100%" viewBox="0 0 100 100" version="1.1" xmlns="http://www.w3.org/2000/svg" xmlns:xlink="http://www.w3.org/1999/xlink" xml:space="preserve" xmlns:serif="http://www.serif.com/" style="fill-rule:evenodd;clip-rule:evenodd;stroke-linejoin:round;stroke-miterlimit:2;"><path d="M52.494,71.267l-16.541,-0l4.273,-14.178l16.54,-0c3.889,-0 6.125,3.2 4.953,7.089c-1.172,3.889 -5.336,7.089 -9.225,7.089m-3.724,-42.534l14.178,0c3.889,0 6.125,3.2 4.953,7.089c-1.172,3.889 -5.336,7.089 -9.225,7.089l-14.178,0m24.628,6.097c5.553,-3.214 10.347,-8.46 11.771,-13.186c3.219,-10.68 -2.574,-18.903 -13.207,-18.903l-29.537,-0l-19.938,66.162l33.271,0c9.924,0 19.954,-8.034 22.93,-17.911c2.165,-7.183 -0.048,-13.327 -5.29,-16.162Z" style="fill-rule:nonzero;"/></svg>